#N canvas 0 22 450 300 10;
#X obj 38 34 inlet~;
#X obj 140 34 inlet;
#X text 184 35 delay ms;
#X obj 285 33 inlet;
#X text 329 34 feedback level;
#X obj 51 250 outlet~;
#X obj 52 185 +~;
#X obj 118 221 delwrite~ \$0-loopline 2000;
#X obj 110 122 delread~ \$0-loopline 160;
#X obj 112 148 *~ 0.7;
#X obj 118 65 pack 0 50;
#X obj 119 92 line;
#X connect 0 0 6 0;
#X connect 1 0 10 0;
#X connect 3 0 9 1;
#X connect 6 0 5 0;
#X connect 6 0 7 0;
#X connect 8 0 9 0;
#X connect 9 0 6 1;
#X connect 10 0 11 0;
#X connect 11 0 8 0;
