#N canvas 511 59 529 324 10;
#X obj 31 31 inlet~;
#X obj 36 264 outlet~;
#X obj 61 182 *~;
#X obj 158 153 clip~ 0 1;
#X floatatom 191 258 5 0 0 0 - - -;
#X obj 151 41 inlet~;
#X obj 155 117 expr~ ($v1 * 0.5 + 0.5);
#X obj 171 199 util/bSnapshot~;
#X text 84 32 audio in;
#X text 199 42 modulator in;
#X connect 0 0 2 0;
#X connect 2 0 1 0;
#X connect 3 0 2 1;
#X connect 3 0 7 0;
#X connect 5 0 6 0;
#X connect 6 0 3 0;
#X connect 7 0 4 0;
