#N canvas 31 110 450 300 10;
#X obj 37 63 inlet~;
#X obj 215 58 inlet~;
#X obj 256 82 inlet;
#X text 85 65 audio in;
#X text 265 61 modulator in;
#X text 298 83 level in;
#X obj 128 102 bRingModulator~;
#X obj 37 156 outlet~;
#X obj 37 129 expr~ $v1 * (1-$f3) + $v2 * $f3;
#X obj 256 108 clip 0 1;
#X floatatom 268 151 5 0 0 0 - - -;
#X connect 0 0 6 0;
#X connect 0 0 8 0;
#X connect 1 0 6 1;
#X connect 2 0 9 0;
#X connect 6 0 8 1;
#X connect 8 0 7 0;
#X connect 9 0 8 2;
#X connect 9 0 10 0;
