#N canvas 310 156 450 300 10;
#X obj 103 68 inlet~;
#X obj 102 210 outlet~;
#X obj 102 163 *~;
#X obj 244 26 inlet;
#X obj 203 140 expr~ $v1 / 2 + 0.5;
#X obj 253 84 line~;
#X obj 247 55 pack 0 50;
#X obj 203 111 osc~ 10;
#X connect 0 0 2 0;
#X connect 2 0 1 0;
#X connect 3 0 6 0;
#X connect 4 0 2 1;
#X connect 5 0 7 0;
#X connect 6 0 5 0;
#X connect 7 0 4 0;
