#N canvas 601 334 567 275 10;
#X obj 21 45 inlet;
#X text 21 24 path to sound file;
#X obj 137 220 outlet;
#X obj 289 220 outlet;
#X obj 406 218 outlet;
#X obj 21 221 outlet;
#X text 134 242 total samples;
#X text 287 241 channels;
#X text 403 240 sample resolution bytes;
#X text 16 242 sample rate Hz;
#X obj 21 118 soundfile_info;
#X floatatom 21 197 5 0 0 0 - - -;
#X floatatom 137 196 15 0 0 0 - - -;
#X floatatom 289 196 5 0 0 0 - - -;
#X floatatom 406 194 5 0 0 0 - - -;
#X obj 255 24 bng 25 250 50 0 empty empty empty 17 7 0 10 -204786 -1
-1;
#X obj 255 57 openpanel;
#X msg 21 94 read \$1;
#X obj 21 142 unpack f symbol f f f f;
#X obj 275 105 print;
#X connect 0 0 17 0;
#X connect 10 0 18 0;
#X connect 11 0 5 0;
#X connect 12 0 2 0;
#X connect 13 0 3 0;
#X connect 14 0 4 0;
#X connect 15 0 16 0;
#X connect 16 0 17 0;
#X connect 17 0 10 0;
#X connect 17 0 19 0;
#X connect 18 0 11 0;
#X connect 18 2 12 0;
#X connect 18 4 13 0;
#X connect 18 5 14 0;
