#N canvas 306 157 758 501 10;
#X obj 163 64 inlet;
#X text 208 64 width;
#X obj 168 244 random;
#X obj 270 68 inlet;
#X text 312 67 speed;
#X obj 420 35 loadbang;
#X obj 168 216 metro \$2;
#X obj 274 184 f \$1;
#X obj 165 368 outlet;
#X obj 168 275 expr ($f1 - ($f2) / 2);
#X obj 274 212 * 1e+06;
#X obj 167 310 / 1e+06;
#X connect 0 0 7 0;
#X connect 2 0 9 0;
#X connect 3 0 6 1;
#X connect 5 0 6 0;
#X connect 6 0 2 0;
#X connect 7 0 10 0;
#X connect 9 0 11 0;
#X connect 10 0 9 1;
#X connect 10 0 2 1;
#X connect 11 0 8 0;
