#N canvas 347 132 450 300 10;
#X obj 46 16 inlet~;
#X obj 48 274 dac~;
#X obj 69 42 inlet~;
#X obj 47 205 *~;
#X obj 69 238 *~;
#X obj 108 166 line~;
#X obj 108 141 pack 0 50;
#X obj 203 103 ctl/bVFader;
#X connect 0 0 3 0;
#X connect 2 0 4 0;
#X connect 3 0 1 0;
#X connect 4 0 1 1;
#X connect 5 0 4 1;
#X connect 5 0 3 1;
#X connect 6 0 5 0;
#X connect 7 0 6 0;
#X coords 0 -1 1 1 20 115 2 200 100;
