#N canvas 400 315 268 204 10;
#X obj 57 36 inlet~;
#X obj 57 145 outlet;
#X obj 57 109 snapshot~;
#X obj 145 73 metro \$1;
#X obj 145 16 loadbang;
#X msg 145 46 1;
#X connect 0 0 2 0;
#X connect 2 0 1 0;
#X connect 3 0 2 0;
#X connect 4 0 5 0;
#X connect 5 0 3 0;
