#N canvas 0 22 349 102 10;
#X floatatom 84 45 0 0 0 0 - - -;
#X floatatom 48 45 0 0 0 0 - - -;
#X obj 12 18 notein;
#X floatatom 12 44 0 0 0 0 - - -;
#X floatatom 204 47 0 0 0 0 - - -;
#X floatatom 168 47 0 0 0 0 - - -;
#X floatatom 132 46 0 0 0 0 - - -;
#X obj 132 20 ctlin;
#X floatatom 295 46 0 0 0 0 - - -;
#X floatatom 259 45 0 0 0 0 - - -;
#X obj 259 19 bendin;
#X connect 2 0 3 0;
#X connect 2 1 1 0;
#X connect 2 2 0 0;
#X connect 7 0 6 0;
#X connect 7 1 5 0;
#X connect 7 2 4 0;
#X connect 10 0 9 0;
#X connect 10 1 8 0;
