#N canvas 377 22 797 534 10;
#X obj 117 364 osc~;
#X obj 187 461 outlet~;
#X obj 280 462 outlet~;
#X obj 132 99 inlet;
#X obj 298 91 inlet;
#X text 338 91 width;
#X obj 117 333 mtof;
#X obj 482 95 inlet;
#X text 524 91 speed;
#X obj 481 124 * 1000;
#X obj 117 304 +;
#X obj 299 119 * 10;
#X obj 159 253 util/bMetroRand;
#X obj 268 363 osc~;
#X obj 268 332 mtof;
#X obj 268 303 +;
#X obj 274 260 util/bMetroRand;
#X obj 383 359 osc~;
#X obj 383 328 mtof;
#X obj 383 299 +;
#X obj 389 256 util/bMetroRand;
#X obj 500 358 osc~;
#X obj 500 327 mtof;
#X obj 500 298 +;
#X floatatom 167 297 5 0 0 0 - - -;
#X obj 214 296 bng 15 250 50 0 empty empty empty 17 7 0 10 -262144
-1 -1;
#X obj 320 297 bng 15 250 50 0 empty empty empty 17 7 0 10 -262144
-1 -1;
#X obj 428 297 bng 15 250 50 0 empty empty empty 17 7 0 10 -262144
-1 -1;
#X obj 546 291 bng 15 250 50 0 empty empty empty 17 7 0 10 -262144
-1 -1;
#X obj 512 258 util/bMetroRand;
#X text 175 98 midi note;
#X connect 0 0 1 0;
#X connect 3 0 10 1;
#X connect 3 0 15 1;
#X connect 3 0 19 1;
#X connect 3 0 23 1;
#X connect 4 0 11 0;
#X connect 6 0 0 0;
#X connect 7 0 9 0;
#X connect 9 0 12 1;
#X connect 9 0 16 1;
#X connect 9 0 20 1;
#X connect 9 0 29 1;
#X connect 10 0 6 0;
#X connect 11 0 12 0;
#X connect 11 0 16 0;
#X connect 11 0 20 0;
#X connect 11 0 29 0;
#X connect 12 0 10 0;
#X connect 12 0 24 0;
#X connect 12 0 25 0;
#X connect 13 0 1 0;
#X connect 14 0 13 0;
#X connect 15 0 14 0;
#X connect 16 0 15 0;
#X connect 16 0 26 0;
#X connect 17 0 2 0;
#X connect 18 0 17 0;
#X connect 19 0 18 0;
#X connect 20 0 19 0;
#X connect 20 0 27 0;
#X connect 21 0 2 0;
#X connect 22 0 21 0;
#X connect 23 0 22 0;
#X connect 29 0 23 0;
#X connect 29 0 28 0;
