#N canvas 140 24 1085 708 10;
#X obj 92 40 inlet;
#X obj 69 651 outlet~;
#N canvas 0 22 450 300 (subpatch) 0;
#X array \$0-sampler 255131 float 2;
#X coords 0 1 255131 -1 400 50 1;
#X restore 600 419 graph;
#X obj 92 68 unpack;
#X obj 79 607 *~;
#X obj 353 492 pack 0 50;
#X obj 350 527 line~;
#X obj 325 436 / 127;
#X obj 74 419 phasor~ 2;
#X msg 145 393 0;
#X floatatom 49 198 5 0 0 0 - - -;
#X obj 80 517 *~;
#X obj 170 290 f;
#X obj 156 329 expr if($f1 == 0 \, 1 \, 0);
#X obj 158 360 select 1;
#X obj 191 392 bng 15 250 50 0 empty empty empty 17 7 0 10 -262144
-1 -1;
#X obj 118 255 t f b b;
#X obj 183 252 f;
#X obj 84 157 expr ($f1 -69) * 0.05;
#X floatatom 21 280 15 0 0 0 - - -;
#X obj 139 651 outlet;
#X obj 248 29 inlet;
#X obj 248 65 unpack;
#X obj 248 99 mtof;
#X obj 248 128 / 440;
#X obj 180 114 t f;
#X obj 603 474 hsl 395 10 0 1 0 0 w_dev_null_send w_dev_null_receive
empty -2 -8 0 10 -228856 -1 -1 0 1;
#X obj 767 310 loadbang;
#X obj 603 484 hsl 395 10 0 1 0 0 w_dev_null_send w_dev_null_receive
empty -2 -8 0 10 -228856 -1 -1 39400 1;
#X msg 767 337 0;
#X msg 800 338 1000;
#X obj 603 419 hsl 395 50 0 1 0 0 w_dev_null_send w_dev_null_receive
empty -2 -8 0 10 -262144 -258113 -1 26310 1;
#X obj 586 327 soundfiler;
#X obj 606 42 inlet;
#X floatatom 586 360 20 0 0 0 - - -;
#X obj 586 267 pack s s s s;
#X obj 586 298 list trim;
#X obj 679 210 f \$0;
#X obj 611 178 t b s b;
#X obj 607 70 symbol;
#X obj 679 237 makefilename %d-sampler;
#X obj 79 551 tabread4~ \$0-sampler;
#X text 63 18 direct speed in;
#X text 295 27 midi note in;
#X text 671 44 control stuff in;
#X obj 607 99 select load;
#X obj 518 134 openpanel;
#X obj 518 110 bang;
#X msg 539 222 read -resize;
#X obj 119 215 expr $f1 * $f2/$f3 / ($f5 - $f4);
#X obj 86 461 util/bRamp~;
#X obj 289 572 util/bSnapshot~ 20;
#X obj 379 166 util/bFileInfo;
#X floatatom 377 458 5 0 0 0 - - -;
#X floatatom 282 616 5 0 0 0 - - -;
#X floatatom 379 195 5 0 0 0 - - -;
#X obj 696 159 print file:;
#X text 671 58 either "load" or <filename>;
#X connect 0 0 3 0;
#X connect 3 0 18 0;
#X connect 3 1 25 0;
#X connect 4 0 1 0;
#X connect 5 0 6 0;
#X connect 6 0 4 1;
#X connect 7 0 5 0;
#X connect 7 0 53 0;
#X connect 8 0 50 0;
#X connect 9 0 8 1;
#X connect 10 0 20 0;
#X connect 11 0 41 0;
#X connect 12 0 13 0;
#X connect 13 0 14 0;
#X connect 14 0 9 0;
#X connect 14 0 15 0;
#X connect 16 0 8 0;
#X connect 16 1 17 0;
#X connect 16 2 12 0;
#X connect 17 0 12 1;
#X connect 18 0 10 0;
#X connect 18 0 49 0;
#X connect 21 0 22 0;
#X connect 22 0 23 0;
#X connect 22 1 25 0;
#X connect 23 0 24 0;
#X connect 24 0 10 0;
#X connect 24 0 49 0;
#X connect 25 0 17 1;
#X connect 25 0 7 0;
#X connect 26 0 49 3;
#X connect 26 0 50 1;
#X connect 27 0 30 0;
#X connect 27 0 29 0;
#X connect 28 0 49 4;
#X connect 28 0 50 2;
#X connect 29 0 26 0;
#X connect 30 0 28 0;
#X connect 32 0 34 0;
#X connect 32 0 11 1;
#X connect 32 0 49 2;
#X connect 33 0 39 0;
#X connect 35 0 36 0;
#X connect 36 0 32 0;
#X connect 37 0 40 0;
#X connect 38 0 48 0;
#X connect 38 1 35 2;
#X connect 38 2 37 0;
#X connect 39 0 45 0;
#X connect 40 0 35 3;
#X connect 41 0 4 0;
#X connect 45 0 47 0;
#X connect 45 1 38 0;
#X connect 45 1 52 0;
#X connect 45 1 56 0;
#X connect 46 0 38 0;
#X connect 46 0 52 0;
#X connect 47 0 46 0;
#X connect 48 0 35 0;
#X connect 49 0 16 0;
#X connect 49 0 19 0;
#X connect 50 0 11 0;
#X connect 50 0 51 0;
#X connect 51 0 31 0;
#X connect 51 0 54 0;
#X connect 52 0 49 1;
#X connect 52 0 55 0;
#X coords 0 -1 1 1 400 100 2 600 400;
