#N canvas 119 46 1008 697 10;
#X obj 92 26 inlet;
#X obj 69 651 outlet~;
#X obj 610 210 soundfiler;
#N canvas 0 22 450 300 (subpatch) 0;
#X array \$0-tapeMachine 263608 float 2;
#X coords 0 1 263608 -1 280 100 1;
#X restore 603 418 graph;
#X obj 350 527 line~;
#X obj 74 419 phasor~ 2;
#X obj 80 517 *~;
#X floatatom 21 280 15 0 0 0 - - -;
#X obj 635 8 inlet;
#X obj 250 628 outlet;
#X obj 241 20 inlet;
#X obj 606 537 hsl 275 15 0 1 0 0 empty empty empty -2 -8 0 10 -228856
-1 -1 0 1;
#X obj 491 509 loadbang;
#X obj 606 552 hsl 275 15 0 1 0 0 empty empty empty -2 -8 0 10 -228856
-1 -1 27400 1;
#X msg 524 544 0;
#X floatatom 610 243 20 0 0 0 - - -;
#X obj 144 217 expr $f1 * 44100.0/$f2 / ($f4 - $f3);
#X msg 492 576 1;
#X obj 606 518 hsl 275 8 0 1 0 0 empty empty empty -2 -8 0 10 -1 -258113
-1 0 1;
#X obj 337 159 t b f;
#X obj 257 161 t b f;
#X floatatom 305 59 5 0 0 0 - - -;
#X obj 419 27 inlet;
#X msg 147 363 0;
#X msg 563 105 read -resize;
#X obj 610 150 pack s s s s;
#X obj 610 181 list trim;
#X obj 703 93 f \$0;
#X obj 635 61 t b s b;
#X obj 635 36 symbol;
#X obj 703 120 makefilename %d-tapeMachine;
#X obj 79 551 tabread4~ \$0-tapeMachine;
#X obj 86 461 util/bRamp~;
#X obj 313 615 util/bSnapshot~ 100;
#X text 285 19 speed;
#X text 466 28 reset phase;
#X text 691 11 file name;
#X text 136 25 volume;
#X obj 894 291 openpanel;
#X obj 867 402 bng 15 250 50 0 empty empty empty 17 7 0 10 -262144
-1 -1;
#X obj 353 492 pack 0 50;
#X obj 79 607 expr~ $v1 * $v2;
#X obj 379 428 loadbang;
#X msg 380 454 1;
#X connect 0 0 40 0;
#X connect 2 0 6 1;
#X connect 2 0 15 0;
#X connect 2 0 16 1;
#X connect 4 0 41 1;
#X connect 5 0 32 0;
#X connect 6 0 31 0;
#X connect 8 0 29 0;
#X connect 10 0 16 0;
#X connect 10 0 9 0;
#X connect 10 0 21 0;
#X connect 11 0 20 0;
#X connect 11 0 32 1;
#X connect 12 0 17 0;
#X connect 12 0 14 0;
#X connect 13 0 19 0;
#X connect 13 0 32 2;
#X connect 14 0 11 0;
#X connect 16 0 7 0;
#X connect 16 0 5 0;
#X connect 17 0 13 0;
#X connect 19 0 16 0;
#X connect 19 1 16 3;
#X connect 20 0 16 0;
#X connect 20 1 16 2;
#X connect 22 0 23 0;
#X connect 23 0 5 1;
#X connect 24 0 25 0;
#X connect 25 0 26 0;
#X connect 26 0 2 0;
#X connect 27 0 30 0;
#X connect 28 0 24 0;
#X connect 28 1 25 2;
#X connect 28 2 27 0;
#X connect 29 0 28 0;
#X connect 30 0 25 3;
#X connect 31 0 41 0;
#X connect 32 0 6 0;
#X connect 32 0 33 0;
#X connect 33 0 18 0;
#X connect 38 0 29 0;
#X connect 39 0 38 0;
#X connect 40 0 4 0;
#X connect 41 0 1 0;
#X connect 42 0 43 0;
#X connect 43 0 40 0;
#X coords 0 -1 1 1 286 170 2 600 400;
