#N canvas 230 64 454 555 10;
#X obj 105 116 inlet;
#X obj 60 436 outlet;
#X obj 103 470 outlet;
#X obj 147 436 outlet;
#X text 113 94 arm;
#X text 147 458 channel;
#X obj 60 319 spigot 0;
#X msg 105 255 1;
#X msg 117 287 0;
#X obj 293 433 outlet;
#X text 297 449 armed;
#X obj 150 144 r w_ctl_lock;
#X obj 105 196 spigot 1;
#X msg 150 167 0;
#X obj 242 145 r w_ctl_unlock;
#X msg 242 170 1;
#X text 23 26 --- Assigned note in --- Send a bang to the inlet to
arm the component. It will be bound to the next channel that is sent.
Has the same outlets as notein;
#X obj 27 286 notein;
#X text 60 455 number;
#X text 101 488 velocity;
#X obj 165 256 inlet;
#X text 165 235 reset;
#X msg 165 377 -1;
#X obj 210 257 loadbang;
#X obj 210 298 r w_ctl_lock;
#X obj 165 350 spigot 1;
#X msg 210 321 0;
#X obj 302 299 r w_ctl_unlock;
#X msg 302 324 1;
#X obj 60 402 bFilteredNotein;
#X connect 0 0 12 0;
#X connect 6 0 8 0;
#X connect 6 0 29 0;
#X connect 7 0 6 1;
#X connect 8 0 6 1;
#X connect 11 0 13 0;
#X connect 12 0 7 0;
#X connect 12 0 9 0;
#X connect 13 0 12 1;
#X connect 14 0 15 0;
#X connect 15 0 12 1;
#X connect 17 2 6 0;
#X connect 20 0 25 0;
#X connect 22 0 29 0;
#X connect 23 0 25 0;
#X connect 24 0 26 0;
#X connect 25 0 22 0;
#X connect 26 0 25 1;
#X connect 27 0 28 0;
#X connect 28 0 25 1;
#X connect 29 0 1 0;
#X connect 29 1 2 0;
#X connect 29 2 3 0;
