#N canvas 748 22 454 555 10;
#X obj 105 116 inlet;
#X obj 60 436 outlet;
#X obj 121 436 outlet;
#X obj 183 436 outlet;
#X obj 183 252 inlet;
#X text 113 94 arm;
#X text 183 231 reset;
#X text 183 454 channel;
#X obj 87 374 f;
#X obj 60 319 spigot 0;
#X msg 105 255 1;
#X msg 117 287 0;
#X obj 60 342 t f b;
#X msg 183 373 -1;
#X obj 228 253 loadbang;
#X obj 293 433 outlet;
#X text 297 449 armed;
#X obj 150 144 r w_ctl_lock;
#X obj 105 196 spigot 1;
#X msg 150 167 0;
#X obj 242 145 r w_ctl_unlock;
#X msg 242 170 1;
#X text 23 26 --- Assigned single note in --- Send a bang to the inlet
to arm the component. It will be bound to the next note number and
channel that is sent. Has the same outlets as ctlin;
#X obj 60 285 notein;
#X text 60 455 number;
#X text 116 455 velocity;
#X obj 228 294 r w_ctl_lock;
#X obj 183 346 spigot 1;
#X msg 228 317 0;
#X obj 320 295 r w_ctl_unlock;
#X msg 320 320 1;
#X obj 60 402 bFilteredSingleNotein;
#X connect 0 0 18 0;
#X connect 4 0 27 0;
#X connect 8 0 31 1;
#X connect 9 0 11 0;
#X connect 9 0 12 0;
#X connect 10 0 9 1;
#X connect 11 0 9 1;
#X connect 12 0 31 0;
#X connect 12 1 8 0;
#X connect 13 0 31 1;
#X connect 14 0 27 0;
#X connect 17 0 19 0;
#X connect 18 0 10 0;
#X connect 18 0 15 0;
#X connect 19 0 18 1;
#X connect 20 0 21 0;
#X connect 21 0 18 1;
#X connect 23 0 9 0;
#X connect 23 2 8 1;
#X connect 26 0 28 0;
#X connect 27 0 13 0;
#X connect 28 0 27 1;
#X connect 29 0 30 0;
#X connect 30 0 27 1;
#X connect 31 0 1 0;
#X connect 31 1 2 0;
#X connect 31 2 3 0;
