#N canvas 268 84 454 555 10;
#X obj 105 116 inlet;
#X text 23 26 --- Assigned control in --- Send a bang to the inlet
to arm the component. It will be bound to the next controler number
and channel that is sent. Has the same outlets as ctlin;
#X obj 60 436 outlet;
#X obj 100 470 outlet;
#X obj 141 436 outlet;
#X text 113 94 arm;
#X text 60 458 value;
#X text 100 492 number;
#X text 141 458 channel;
#X obj 47 281 ctlin;
#X obj 87 374 f;
#X obj 60 319 spigot 0;
#X msg 105 255 1;
#X msg 117 287 0;
#X obj 60 342 t f b;
#X obj 293 433 outlet;
#X text 297 449 armed;
#X obj 150 144 r w_ctl_lock;
#X obj 105 196 spigot 1;
#X msg 150 167 0;
#X obj 242 145 r w_ctl_unlock;
#X msg 242 170 1;
#X obj 184 254 inlet;
#X text 184 233 reset;
#X msg 184 375 -1;
#X obj 229 255 loadbang;
#X obj 229 296 r w_ctl_lock;
#X obj 184 348 spigot 1;
#X msg 229 319 0;
#X obj 321 297 r w_ctl_unlock;
#X msg 321 322 1;
#X obj 60 402 bFilteredCtlin;
#X connect 0 0 18 0;
#X connect 9 1 11 0;
#X connect 9 2 10 1;
#X connect 10 0 31 1;
#X connect 11 0 13 0;
#X connect 11 0 14 0;
#X connect 12 0 11 1;
#X connect 13 0 11 1;
#X connect 14 0 31 0;
#X connect 14 1 10 0;
#X connect 17 0 19 0;
#X connect 18 0 12 0;
#X connect 18 0 15 0;
#X connect 19 0 18 1;
#X connect 20 0 21 0;
#X connect 21 0 18 1;
#X connect 22 0 27 0;
#X connect 24 0 31 1;
#X connect 25 0 27 0;
#X connect 26 0 28 0;
#X connect 27 0 24 0;
#X connect 28 0 27 1;
#X connect 29 0 30 0;
#X connect 30 0 27 1;
#X connect 31 0 2 0;
#X connect 31 1 3 0;
#X connect 31 2 4 0;
