#N canvas 591 284 434 398 10;
#X obj 259 121 inlet;
#X obj 114 326 outlet;
#X obj 240 298 f;
#X obj 178 325 outlet;
#X obj 240 325 outlet;
#X obj 63 216 select -1;
#X obj 63 120 notein;
#X obj 178 298 f;
#X obj 114 251 t f b b;
#X obj 189 86 loadbang;
#X msg 189 113 -1;
#X obj 315 121 inlet;
#X text 43 30 --- Filtered ctlin --- This is a filtered version of
notein \, just like with creation arguments but the channel number
can be changed at runtime. in: NOTE NUMBER \, CHANNEL NUMBER;
#X text 115 344 note;
#X text 170 343 velocity;
#X text 241 344 channel;
#X text 259 96 note;
#X text 315 96 channel;
#X obj 63 180 expr if($f1 == $f3 && $f2 == $f4 \, $f1 \, -1);
#X connect 0 0 18 2;
#X connect 2 0 4 0;
#X connect 5 1 8 0;
#X connect 6 0 18 0;
#X connect 6 1 7 1;
#X connect 6 2 18 1;
#X connect 7 0 3 0;
#X connect 8 0 1 0;
#X connect 8 1 7 0;
#X connect 8 2 2 0;
#X connect 9 0 10 0;
#X connect 10 0 18 2;
#X connect 10 0 18 3;
#X connect 11 0 2 1;
#X connect 11 0 18 3;
#X connect 18 0 5 0;
