#N canvas 438 334 481 360 10;
#X obj 150 200 bng 15 250 50 0 w_dev_null_send w_dev_null_receive empty
17 7 0 10 -262144 -1 -262144;
#X obj 175 255 outlet;
#X obj 178 200 hsl 80 15 0 127 0 0 w_dev_null_send w_dev_null_receive
empty -2 -8 0 10 -228856 -1 -1 0 1;
#X msg 150 133 color 13;
#X msg 94 133 color 0;
#X obj 175 231 / 127;
#X obj 175 173 bAssignedCtlin;
#X connect 0 0 6 0;
#X connect 2 0 5 0;
#X connect 3 0 0 0;
#X connect 4 0 0 0;
#X connect 5 0 1 0;
#X connect 6 0 4 0;
#X connect 6 0 2 0;
#X connect 6 3 3 0;
#X coords 0 -1 1 1 110 15 2 150 200;
