#N canvas 589 107 408 276 10;
#X obj 36 92 inlet;
#X obj 36 235 outlet;
#X obj 36 209 spigot;
#X text 33 22 --- IsLocked --- pass only messages if midi self assignment
is unlocked;
#X msg 152 192 1;
#X msg 103 166 0;
#X obj 252 166 loadbang;
#X obj 103 140 r b_ctl_lock;
#X obj 152 166 r b_ctl_unlock;
#X connect 0 0 2 0;
#X connect 2 0 1 0;
#X connect 4 0 2 1;
#X connect 5 0 2 1;
#X connect 6 0 4 0;
#X connect 7 0 5 0;
#X connect 8 0 4 0;
