#N canvas 564 52 432 404 10;
#X obj 150 220 tgl 30 0 w_dev_null_send w_dev_null_receive empty 17
7 0 10 -228856 -1 -1 0 127;
#X obj 150 200 bng 15 250 50 0 empty empty empty 17 7 0 10 -262144
-1 -262144;
#X msg 160 143 color 13;
#X msg 104 143 color 0;
#X obj 150 272 outlet;
#X obj 195 203 bAssignedSingleNotein;
#X connect 0 0 4 0;
#X connect 1 0 5 0;
#X connect 2 0 1 0;
#X connect 3 0 1 0;
#X connect 5 1 3 0;
#X connect 5 1 0 0;
#X connect 5 3 2 0;
#X coords 0 -1 1 1 30 50 2 150 200;
